<?xml version="1.0" standalone="no"?><!DOCTYPE svg PUBLIC "-//W3C//DTD SVG 1.1//EN" "http://www.w3.org/Graphics/SVG/1.1/DTD/svg11.dtd"><svg t="1600487293813" class="icon" viewBox="0 0 1024 1024" version="1.1" xmlns="http://www.w3.org/2000/svg" p-id="2464" xmlns:xlink="http://www.w3.org/1999/xlink" width="200" height="200"><defs><style type="text/css"></style></defs><path d="M892.3 514.4v-77.1c0-57.8-43.4-101.2-101.2-101.2v-53c0-57.8-43.4-101.2-101.2-101.2h-91.6l-28.9-38.6c-9.6-9.6-24.1-14.5-33.7-4.8l-57.8 43.4H232.1c-57.8 0-101.2 43.4-101.2 101.2v510.8c0 57.8 43.4 101.2 101.2 101.2h559c57.8 0 101.2-43.4 101.2-101.2V514.4z m-48.2 154.2H689.9c-28.9 0-53-24.1-53-53s24.1-53 53-53h154.2v106zM689.9 230.1c28.9 0 53 24.1 53 53v53h-33.7l-77.1-106h57.8z m-144.5-38.6l96.4 134.9H357.4l188-134.9z m-313.3 38.6h178.3L270.7 331.3s0 4.8-4.8 4.8h-33.7c-28.9 0-53-24.1-53-53-0.1-28.9 24-53 52.9-53z m612 563.8c0 28.9-24.1 53-53 53h-559c-28.9 0-53-24.1-53-53V369.8c14.5 9.6 33.7 14.5 53 14.5h559c28.9 0 53 24.1 53 53v77.1H689.9c-57.8 0-101.2 43.4-101.2 101.2 0 53 43.4 101.2 101.2 101.2h154.2v77.1z m0 0" fill="#8A8A8A" p-id="2465"></path><path d="M665.8 615.6c0 8.6 4.6 16.6 12 20.9 7.5 4.3 16.6 4.3 24.1 0s12-12.3 12-20.9c0-8.6-4.6-16.6-12-20.9-7.5-4.3-16.6-4.3-24.1 0-7.4 4.3-12 12.3-12 20.9z m0 0" fill="#8A8A8A" p-id="2466"></path></svg>