<?xml version="1.0" standalone="no"?><!DOCTYPE svg PUBLIC "-//W3C//DTD SVG 1.1//EN" "http://www.w3.org/Graphics/SVG/1.1/DTD/svg11.dtd"><svg t="1600487327894" class="icon" viewBox="0 0 1024 1024" version="1.1" xmlns="http://www.w3.org/2000/svg" p-id="4664" xmlns:xlink="http://www.w3.org/1999/xlink" width="200" height="200"><defs><style type="text/css"></style></defs><path d="M512 4.999529a481.882353 481.882353 0 1 0 0 963.704471A481.882353 481.882353 0 0 0 512 4.999529z m0 915.516236A433.694118 433.694118 0 1 1 512 53.187765a433.694118 433.694118 0 0 1 0 867.328z" fill="#3F4650" p-id="4665"></path><path d="M338.522353 596.208941l54.814118-19.034353c11.023059 82.522353 60.235294 122.277647 147.57647 119.024941 77.763765-1.566118 118.241882-31.683765 121.434353-90.473411 7.951059-44.393412-36.502588-76.197647-133.300706-95.232C408.335059 486.701176 351.171765 441.404235 357.556706 374.784c6.324706-81.016471 61.921882-123.843765 166.731294-128.602353 103.122824 0 164.261647 43.670588 183.296 130.951529l-57.103059 16.685177c-17.468235-66.680471-58.006588-99.990588-121.434353-99.990588-74.691765 1.566118-113.543529 28.551529-116.736 80.956235-1.566118 39.695059 38.912 68.246588 121.494588 85.714824 130.108235 23.792941 192.030118 73.005176 185.705412 147.57647-7.951059 82.582588-66.680471 126.253176-176.188235 131.011765-117.458824 3.192471-185.765647-44.453647-204.8-142.878118z" fill="#3F4650" p-id="4666"></path><path d="M509.650824 197.752471h44.212705v601.148235H509.590588v-601.148235z" fill="#3F4650" p-id="4667"></path></svg>