<?xml version="1.0" standalone="no"?><!DOCTYPE svg PUBLIC "-//W3C//DTD SVG 1.1//EN" "http://www.w3.org/Graphics/SVG/1.1/DTD/svg11.dtd"><svg t="1599527094919" class="icon" viewBox="0 0 1024 1024" version="1.1" xmlns="http://www.w3.org/2000/svg" p-id="4541" xmlns:xlink="http://www.w3.org/1999/xlink" width="200" height="200"><defs><style type="text/css"></style></defs><path d="M291.831322 417.665015 112.710167 417.665015l-0.960749 0c-18.384935 0-33.116547 15.349993-33.116547 34.383088L78.632871 923.898589l0 1.433028c0 18.538231 14.760392 34.128661 33.116547 34.128661l179.208497 0 0.873408 0c18.457886 0 33.334799-15.59043 33.334799-34.128661L325.166121 452.77561l0-0.727507C325.195102 433.015008 310.289208 417.665015 291.831322 417.665015zM285.921329 917.31805 117.921633 917.31805 117.921633 459.821433l167.999696 0L285.921329 917.31805zM601.395238 65.100054l-179.368988 0-0.843428 0c-18.254623 0-33.131537 15.139136-33.131537 34.696476L388.051285 923.898589l0 1.433028c0 18.531436 14.876913 34.128661 33.131537 34.128661l179.252067 0 0.960349 0c18.545426 0 33.597221-15.597425 33.597221-34.128661L634.992459 100.742289l0-0.938963C634.992259 80.23919 619.940464 65.100054 601.395238 65.100054zM593.243765 920.68077l-163.428795 0L429.814969 103.879562l163.428795 0L593.243765 920.68077zM910.668751 248.908432l-179.048205 0-1.048289 0c-18.603387 0-33.51028 15.437533-33.51028 34.419663l0 640.577488 0 1.441023c0 18.538431 14.906893 34.120866 33.51028 34.120866l179.135146 0 0.961348 0c18.370545 0 33.014616-15.597425 33.014616-34.120866L943.683367 284.31023l0-0.982334C943.712147 264.345965 929.039295 248.908432 910.668751 248.908432zM904.205133 921.554178l-167.664923 0 0.02898-634.732451 167.635943 0L904.205133 921.554178z" p-id="4542"></path></svg>