<?xml version="1.0" standalone="no"?><!DOCTYPE svg PUBLIC "-//W3C//DTD SVG 1.1//EN" "http://www.w3.org/Graphics/SVG/1.1/DTD/svg11.dtd"><svg t="1600317241845" class="icon" viewBox="0 0 1024 1024" version="1.1" xmlns="http://www.w3.org/2000/svg" p-id="2747" xmlns:xlink="http://www.w3.org/1999/xlink" width="200" height="200"><defs><style type="text/css"></style></defs><path d="M805.583 832.759c5.558 4.523 15.444 2.682 22.68-4.523 7.173-7.27 9.016-17.076 4.526-22.698 0 0-66.367-90.566-67.661-91.875-10.177-10.226-29.949-6.914-44.133 7.286-14.187 14.233-17.512 33.942-7.335 44.136 1.324 1.309 91.923 67.674 91.923 67.674zM946.165 531.885c7.11-0.727 12.794-8.998 12.794-19.209 0-10.274-5.684-18.53-12.794-19.257 0 0-111.016-17.157-112.892-17.157-14.409 0-25.976 16.317-25.976 36.414 0 20.065 11.567 36.317 25.976 36.317 1.876 0.001 112.892-17.108 112.892-17.108zM832.79 219.765c4.49-5.588 2.647-15.458-4.526-22.68-7.236-7.239-17.122-9.079-22.68-4.539 0 0-90.599 66.35-91.922 67.641-10.177 10.194-6.852 29.953 7.335 44.137 14.184 14.2 33.956 17.464 44.133 7.334 1.293-1.325 67.66-91.893 67.66-91.893zM511.139 288.232c-125.107 0-224.395 100.679-224.395 224.444 0 123.7 99.287 224.363 224.395 224.363 125.203 0 224.395-100.663 224.395-224.363 0-123.764-99.191-224.444-224.395-224.444z m0 373.735c-83.426 0-149.244-67.012-149.244-149.29 0-82.359 65.818-149.339 149.244-149.339 83.489 0 149.369 66.979 149.369 149.339 0.001 82.278-65.88 149.29-149.369 149.29zM218.214 192.546c-5.558-4.539-15.415-2.7-22.651 4.539-7.239 7.223-9.046 17.092-4.556 22.68 0 0 66.397 90.567 67.723 91.892 10.111 10.129 29.886 6.866 44.07-7.334 14.217-14.184 17.479-33.943 7.335-44.104-1.355-1.323-91.921-67.673-91.921-67.673zM493.207 946.638c0.744 7.19 9.046 12.811 19.223 12.811 10.276 0 18.515-5.621 19.259-12.811 0 0 17.125-110.987 17.125-112.861 0-14.362-16.285-25.961-36.384-25.961-20.03 0-36.348 11.6-36.348 25.961 0 1.874 17.125 112.861 17.125 112.861zM530.59 78.651c-0.711-7.173-8.983-12.86-19.259-12.86-10.177 0-18.449 5.687-19.223 12.86 0 0-17.158 110.97-17.158 112.813 0 14.392 16.351 26.025 36.381 26.025 20.129 0 36.384-11.633 36.384-26.025 0.001-1.843-17.125-112.813-17.125-112.813zM77.695 493.42c-7.206 0.727-12.86 8.982-12.86 19.257 0 10.178 5.654 18.482 12.86 19.209 0 0 110.953 17.108 112.829 17.108 14.376 0 25.943-16.252 25.943-36.317 0-20.097-11.567-36.414-25.943-36.414-1.876 0-112.829 17.157-112.829 17.157zM191.007 805.538c-4.49 5.622-2.683 15.428 4.556 22.698 7.236 7.205 17.092 9.047 22.651 4.523 0 0 90.566-66.366 91.922-67.674 10.144-10.194 6.882-29.903-7.335-44.136-14.184-14.2-33.959-17.512-44.07-7.286-1.327 1.309-67.724 91.875-67.724 91.875z" fill="" p-id="2748"></path></svg>