<?xml version="1.0" standalone="no"?><!DOCTYPE svg PUBLIC "-//W3C//DTD SVG 1.1//EN" "http://www.w3.org/Graphics/SVG/1.1/DTD/svg11.dtd"><svg t="1599526798184" class="icon" viewBox="0 0 1024 1024" version="1.1" xmlns="http://www.w3.org/2000/svg" p-id="1792" xmlns:xlink="http://www.w3.org/1999/xlink" width="200" height="200"><defs><style type="text/css"></style></defs><path d="M926.72 336.896c2.56 5.632 4.096 11.776 6.656 17.408h-48.128c-61.44-145.408-205.312-247.296-373.248-247.296-223.744 0-404.992 181.248-404.992 404.992h-45.056c0-248.32 201.216-450.048 450.048-450.048 160.768 0 301.056 84.48 380.928 210.944l13.824-78.848c2.048-12.288 13.824-20.48 26.112-18.432 12.288 2.048 20.48 13.824 18.432 26.112l-23.552 133.12c-0.512 1.024-1.024 1.536-1.024 2.048z m-234.496 242.688v45.056h-157.696v135.168h-45.056V624.64H331.776v-45.056h157.696V512H331.776v-45.056h139.776l-102.4-121.856 34.304-29.184 107.52 128.512h0.512l107.52-128.512 34.304 29.184-102.4 121.856h139.776v45.056h-157.696v67.584h159.232zM97.28 687.104c-2.56-5.632-4.096-11.776-6.656-17.408h48.128c61.44 145.408 205.312 247.296 373.248 247.296 223.744 0 404.992-181.248 404.992-404.992h45.056c0 248.32-201.216 450.048-450.048 450.048-160.768 0-301.056-84.48-380.928-210.944l-13.824 78.848c-2.048 12.288-13.824 20.48-26.112 18.432-12.288-2.048-20.48-13.824-18.432-26.112l23.552-133.12c0.512-1.024 1.024-1.536 1.024-2.048z" fill="#8A8A8A" p-id="1793"></path></svg>