<?xml version="1.0" standalone="no"?><!DOCTYPE svg PUBLIC "-//W3C//DTD SVG 1.1//EN" "http://www.w3.org/Graphics/SVG/1.1/DTD/svg11.dtd"><svg t="1600521346177" class="icon" viewBox="0 0 1024 1024" version="1.1" xmlns="http://www.w3.org/2000/svg" p-id="3559" xmlns:xlink="http://www.w3.org/1999/xlink" width="200" height="200"><defs><style type="text/css"></style></defs><path d="M513.513 1016.663c-279.363 0-506.689-227.328-506.689-506.689s227.328-506.689 506.689-506.689 506.689 227.328 506.689 506.689-227.328 506.689-506.689 506.689zM513.513 30.668c-264.301 0-479.3 215-479.3 479.3s215 479.3 479.3 479.3 479.3-215 479.3-479.3-215-479.3-479.3-479.3z" p-id="3560"></path><path d="M439.56 633.22l271.146-271.146c10.954-10.954 27.392-10.954 38.344 0s10.954 27.392 0 38.344l-271.146 271.146c-10.954 10.954-27.392 10.954-38.344 0s-10.954-27.392 0-38.344z" p-id="3561"></path><path d="M284.822 478.473c10.954-10.954 27.392-10.954 38.344 0l154.745 154.745c10.954 10.954 10.954 27.392 0 38.344s-27.392 10.954-38.344 0l-154.745-154.745c-10.954-10.954-10.954-28.759 0-38.344z" p-id="3562"></path></svg>