<?xml version="1.0" standalone="no"?><!DOCTYPE svg PUBLIC "-//W3C//DTD SVG 1.1//EN" "http://www.w3.org/Graphics/SVG/1.1/DTD/svg11.dtd"><svg t="1600516377154" class="icon" viewBox="0 0 1024 1024" version="1.1" xmlns="http://www.w3.org/2000/svg" p-id="780" xmlns:xlink="http://www.w3.org/1999/xlink" width="200" height="200"><defs><style type="text/css"></style></defs><path d="M977.454545 488.727273a442.181818 442.181818 0 1 1-884.363636 0 442.181818 442.181818 0 0 1 884.363636 0z m-810.682181 0a368.500364 368.500364 0 1 0 736.954181 0 368.500364 368.500364 0 0 0-736.954181 0zM707.072 457.309091a39.098182 39.098182 0 0 1 9.728 18.245818l0.046545 0.139636a39.749818 39.749818 0 0 1-8.098909 44.218182l-141.358545 141.35854599a39.982545 39.982545 0 0 1-56.506182-56.55272799l79.173818-79.127272-239.010909 0a36.864 36.864 0 0 1 0-73.728L588.520727 451.863273 509.207273 372.549818a40.029091 40.029091 0 0 1 56.552727-56.552727L707.025455 457.355636z" p-id="781"></path></svg>