<?xml version="1.0" standalone="no"?><!DOCTYPE svg PUBLIC "-//W3C//DTD SVG 1.1//EN" "http://www.w3.org/Graphics/SVG/1.1/DTD/svg11.dtd"><svg t="1600403650906" class="icon" viewBox="0 0 1024 1024" version="1.1" xmlns="http://www.w3.org/2000/svg" p-id="6288" xmlns:xlink="http://www.w3.org/1999/xlink" width="200" height="200"><defs><style type="text/css"></style></defs><path d="M889.2 916.4H134.8c-15 0-27.1-12.2-27.1-27.1s12.2-27.1 27.1-27.1h23.5V152.9c0-25 20.2-45.2 45.2-45.2h416.1c25 0 45.2 20.3 45.2 45.2v709.2h146.6V466.8c0-10-8.1-18.1-18.1-18.1h-38.9c-15 0-27.1-12.2-27.1-27.1 0-15 12.2-27.1 27.1-27.1h66c25 0 45.2 20.2 45.2 45.2v422.5h23.5c15 0 27.1 12.2 27.1 27.1s-12 27.1-27 27.1zM610.6 180c0-10-8.1-18.1-18.1-18.1H230.7c-10 0-18.1 8.1-18.1 18.1v682.1h398V180z m-283.2 78.7h168.3c15 0 27.1 12.1 27.1 27.1 0 15-12.2 27.1-27.1 27.1H327.4c-15 0-27.1-12.2-27.1-27.1 0-15 12.2-27.1 27.1-27.1z m0 135.7h168.3c15 0 27.1 12.1 27.1 27.1 0 15-12.2 27.1-27.1 27.1H327.4c-15 0-27.1-12.2-27.1-27.1 0-15 12.2-27.1 27.1-27.1z m0 135.7h168.3c15 0 27.1 12.1 27.1 27.1 0 15-12.2 27.1-27.1 27.1H327.4c-15 0-27.1-12.2-27.1-27.1 0-15 12.2-27.1 27.1-27.1z m0 135.7h168.3c15 0 27.1 12.1 27.1 27.1 0 15-12.2 27.1-27.1 27.1H327.4c-15 0-27.1-12.2-27.1-27.1 0-15 12.2-27.1 27.1-27.1z m0 0" p-id="6289"></path></svg>